<?xml version="1.0" standalone="no"?>
<!DOCTYPE svg PUBLIC "-//W3C//DTD SVG 20010904//EN"
 "http://www.w3.org/TR/2001/REC-SVG-20010904/DTD/svg10.dtd">
<svg version="1.0" xmlns="http://www.w3.org/2000/svg"
 width="1280.000000pt" height="1280.000000pt" viewBox="0 0 1280.000000 1280.000000"
 preserveAspectRatio="xMidYMid meet">
<metadata>
Created by potrace 1.15, written by Peter Selinger 2001-2017
</metadata>
<g transform="translate(0.000000,1280.000000) scale(0.100000,-0.100000)"
fill="#000000" stroke="none">
<path d="M6280 10823 c-79 -247 -334 -1037 -566 -1758 l-422 -1310 -73 -1
c-41 -1 -654 -7 -1364 -14 -710 -6 -1296 -13 -1303 -16 -7 -2 -205 -4 -440 -4
-235 0 -502 -3 -593 -7 l-167 -6 1262 -939 c693 -516 1406 -1046 1583 -1178
l322 -239 -19 -58 c-62 -185 -1049 -3257 -1047 -3259 1 -1 133 90 292 201 160
111 838 582 1507 1047 l1217 846 433 -307 c238 -169 921 -653 1518 -1075 597
-423 1092 -775 1101 -782 8 -8 18 -14 21 -14 2 0 -91 278 -208 618 -118 339
-232 669 -253 732 -636 1842 -781 2266 -778 2273 2 8 290 204 2149 1464 510
345 927 632 928 637 0 5 -82 6 -187 2 -104 -3 -919 -9 -1813 -12 l-1625 -6
-177 483 c-97 266 -359 984 -583 1594 -224 611 -441 1206 -483 1322 -42 117
-79 213 -82 213 -3 0 -71 -201 -150 -447z"/>
</g>
</svg>
